# xmcd CD database file
#
# Track frame offsets:
#	150
#	27162
#	49465
#	78212
#
# Disc length: 1293 seconds
#
# Revision: 0
# Processed by: cddbd v1.5.2PL0 Copyright (c) Steve Scherf et al.
# Submitted via: CDex 1.51
#
DISCID=28050b04
DTITLE=Robert Strauss - Mr. Feelings (Album Sampler 1)
DYEAR=2006
DGENRE=Rhythmic Soul
TTITLE0=Close Your Eyes f Saidah Baba Talibah
TTITLE1=Miami Jammin'
TTITLE2=Hot Like An Oven f Leroy Burgess
TTITLE3=Music is My Life f Richie Henessey
EXTD=YEAR: 2006
EXTT0=
EXTT1=
EXTT2=
EXTT3=
PLAYORDER=
